<svg xmlns="http://www.w3.org/2000/svg" width="38.197" height="23.855" viewBox="0 0 38.197 23.855">
  <g id="Groupe_10" data-name="Groupe 10" transform="translate(-110.73 -115.006)">
    <path id="Icon_awesome-fill" data-name="Icon awesome-fill" d="M23.418,10.113,13.742.437a1.491,1.491,0,0,0-2.108,0C11.614.594,1.365,10.633,1.31,10.76l5.132,3.372L1.937,17.98,6.77,22.545a4.472,4.472,0,0,0,6.325,0L23.418,12.222a1.492,1.492,0,0,0,0-2.109ZM18,13.42H7.24c.063-.179-2.48.179-2.3,0l-.91-1.164c-.037.111,8.74-8.823,8.657-8.657l7.569,7.568L18,13.42Z" transform="translate(125.073 115.006)" fill="#fff"/>
    <path id="Icon_awesome-eraser" data-name="Icon awesome-eraser" d="M24.576,14.191a2.369,2.369,0,0,0,0-3.35l-7.9-7.9a2.369,2.369,0,0,0-3.35,0L.694,15.579a2.369,2.369,0,0,0,0,3.35l4.738,4.738a2.369,2.369,0,0,0,1.675.694c-.036-.152,6.638.237,7.91,0s4.828-5.938,9.559-10.17ZM9.64,11.1l6.78,6.78L13.1,21.2H7.434L3.486,17.254,9.64,11.1Z" transform="translate(110.73 113.589)" fill="#fff"/>
  </g>
</svg>
