<svg xmlns="http://www.w3.org/2000/svg" width="36" height="36" viewBox="0 0 36 36">
  <path id="Icon_awesome-eye-dropper" data-name="Icon awesome-eye-dropper" d="M3.568,23.432A4.5,4.5,0,0,0,2.25,26.614v3.2L0,33.75,2.25,36l3.938-2.25h3.2a4.5,4.5,0,0,0,3.182-1.318l8.9-8.9-9-9ZM34.023,1.977a6.748,6.748,0,0,0-9.545,0L19.057,7.4l-.921-.921a1.687,1.687,0,0,0-2.386,0L12.869,9.357a1.688,1.688,0,0,0,0,2.386L24.256,23.13a1.687,1.687,0,0,0,2.386,0l2.881-2.88a1.688,1.688,0,0,0,0-2.386l-.921-.921,5.42-5.42a6.747,6.747,0,0,0,0-9.545Z" transform="translate(0 0)" fill="#fff"/>
</svg>
