<svg xmlns="http://www.w3.org/2000/svg" width="36" height="36.001" viewBox="0 0 36 36.001">
  <path id="Icon_awesome-fill" data-name="Icon awesome-fill" d="M35.341,15.262,20.738.659a2.25,2.25,0,0,0-3.182,0C17.527.9,2.061,16.046,1.977,16.239a6.749,6.749,0,0,0,0,9.545l8.24,8.24a6.748,6.748,0,0,0,9.545,0L35.341,18.444a2.251,2.251,0,0,0,0-3.182Zm-8.172,4.99H4.636a2.183,2.183,0,0,1,.522-.832l.925-.925c-.056.168,13.19-13.316,13.064-13.064L30.569,16.853l-3.4,3.4Z" transform="translate(0)" fill="#fff"/>
</svg>
